<svg width="272.305" height="60.782" viewBox="0 0 272.305 60.782" xmlns="http://www.w3.org/2000/svg"><g id="svgGroup" stroke-linecap="round" fill-rule="evenodd" font-size="9pt" stroke="#ffffff" stroke-width="0.25mm" fill="#ffffff" style="stroke:#ffffff;stroke-width:0.25mm;fill:#ffffff"><path d="M 96.484 0 L 96.484 22.344 A 15.27 15.27 0 0 1 101.029 18.565 A 14.123 14.123 0 0 1 107.773 16.953 Q 120.837 16.953 121.665 31.373 A 34.474 34.474 0 0 1 121.719 32.93 L 121.719 60 L 110.43 60 L 110.43 33.242 A 13.442 13.442 0 0 0 110.299 31.3 Q 109.978 29.107 108.867 27.871 A 4.621 4.621 0 0 0 107.065 26.668 Q 106.311 26.375 105.367 26.243 A 12.225 12.225 0 0 0 103.672 26.133 A 10.053 10.053 0 0 0 100.774 26.526 A 7.23 7.23 0 0 0 96.484 29.961 L 96.484 60 L 85.195 60 L 85.195 0 L 96.484 0 Z M 235.82 17.734 L 246.445 17.734 L 246.797 22.617 A 14.514 14.514 0 0 1 257.316 17.021 A 19.212 19.212 0 0 1 258.945 16.953 A 18.115 18.115 0 0 1 262.809 17.338 Q 266.689 18.186 268.945 20.898 Q 272.227 24.844 272.305 32.695 L 272.305 60 L 261.016 60 L 261.016 32.969 Q 261.016 30.848 260.472 29.414 A 4.821 4.821 0 0 0 259.453 27.754 A 4.568 4.568 0 0 0 257.804 26.689 Q 256.408 26.141 254.322 26.133 A 16.149 16.149 0 0 0 254.258 26.133 A 8.781 8.781 0 0 0 251.019 26.704 Q 248.873 27.548 247.459 29.64 A 10.259 10.259 0 0 0 247.109 30.195 L 247.109 60 L 235.82 60 L 235.82 17.734 Z M 68.438 45.391 L 79.023 45.391 Q 78.984 49.688 76.68 53.262 A 15.465 15.465 0 0 1 70.371 58.809 A 19.36 19.36 0 0 1 62.869 60.742 A 22.961 22.961 0 0 1 61.523 60.781 A 22.948 22.948 0 0 1 55.325 59.988 A 16.847 16.847 0 0 1 47.227 55.02 Q 42.422 49.73 42.027 40.738 A 37.378 37.378 0 0 1 41.992 39.102 L 41.992 38.359 Q 41.992 28.594 47.188 22.773 A 17.076 17.076 0 0 1 57.649 17.234 A 24.662 24.662 0 0 1 61.445 16.953 A 22.61 22.61 0 0 1 66.95 17.588 A 15.965 15.965 0 0 1 74.16 21.465 A 15.226 15.226 0 0 1 78.813 30.661 A 21.271 21.271 0 0 1 79.023 33.477 L 68.438 33.477 A 9.257 9.257 0 0 0 68.065 31.014 A 7.054 7.054 0 0 0 66.406 28.145 A 6.512 6.512 0 0 0 62.337 26.157 A 9.063 9.063 0 0 0 61.25 26.094 A 8.596 8.596 0 0 0 58.766 26.433 A 6.386 6.386 0 0 0 55.293 28.965 Q 53.497 31.529 53.304 36.943 A 37.743 37.743 0 0 0 53.281 38.281 L 53.281 39.453 A 33.903 33.903 0 0 0 53.422 42.66 Q 53.727 45.859 54.694 47.837 A 7.417 7.417 0 0 0 55.273 48.828 A 6.472 6.472 0 0 0 59.763 51.562 A 9.963 9.963 0 0 0 61.328 51.68 A 9.262 9.262 0 0 0 63.58 51.42 A 6.649 6.649 0 0 0 66.406 49.961 A 5.886 5.886 0 0 0 68.398 46.001 A 8.041 8.041 0 0 0 68.438 45.391 Z M 197.813 45.391 L 208.398 45.391 Q 208.359 49.688 206.055 53.262 A 15.465 15.465 0 0 1 199.746 58.809 A 19.36 19.36 0 0 1 192.244 60.742 A 22.961 22.961 0 0 1 190.898 60.781 A 22.948 22.948 0 0 1 184.7 59.988 A 16.847 16.847 0 0 1 176.602 55.02 Q 171.797 49.73 171.402 40.738 A 37.378 37.378 0 0 1 171.367 39.102 L 171.367 38.359 Q 171.367 28.594 176.563 22.773 A 17.076 17.076 0 0 1 187.024 17.234 A 24.662 24.662 0 0 1 190.82 16.953 A 22.61 22.61 0 0 1 196.325 17.588 A 15.965 15.965 0 0 1 203.535 21.465 A 15.226 15.226 0 0 1 208.188 30.661 A 21.271 21.271 0 0 1 208.398 33.477 L 197.813 33.477 A 9.257 9.257 0 0 0 197.44 31.014 A 7.054 7.054 0 0 0 195.781 28.145 A 6.512 6.512 0 0 0 191.712 26.157 A 9.063 9.063 0 0 0 190.625 26.094 A 8.596 8.596 0 0 0 188.141 26.433 A 6.386 6.386 0 0 0 184.668 28.965 Q 182.872 31.529 182.679 36.943 A 37.743 37.743 0 0 0 182.656 38.281 L 182.656 39.453 A 33.903 33.903 0 0 0 182.797 42.66 Q 183.102 45.859 184.069 47.837 A 7.417 7.417 0 0 0 184.648 48.828 A 6.472 6.472 0 0 0 189.138 51.562 A 9.963 9.963 0 0 0 190.703 51.68 A 9.262 9.262 0 0 0 192.955 51.42 A 6.649 6.649 0 0 0 195.781 49.961 A 5.886 5.886 0 0 0 197.773 46.001 A 8.041 8.041 0 0 0 197.813 45.391 Z M 166.133 60 L 154.727 60 A 9.782 9.782 0 0 1 154.125 58.525 Q 153.792 57.485 153.594 56.211 Q 149.492 60.781 142.93 60.781 A 17.657 17.657 0 0 1 138.068 60.142 A 13.874 13.874 0 0 1 132.637 57.188 A 11.493 11.493 0 0 1 128.573 48.843 A 14.174 14.174 0 0 1 128.555 48.125 A 14.406 14.406 0 0 1 129.226 43.612 A 11.412 11.412 0 0 1 133.535 37.812 A 16.751 16.751 0 0 1 138.314 35.479 Q 142.34 34.203 147.93 34.18 L 153.125 34.18 L 153.125 31.758 A 9.277 9.277 0 0 0 152.931 29.803 Q 152.585 28.196 151.621 27.07 A 4.646 4.646 0 0 0 149.533 25.699 Q 148.759 25.436 147.809 25.352 A 10.603 10.603 0 0 0 146.875 25.313 Q 144.734 25.313 143.286 26.084 A 5.044 5.044 0 0 0 142.402 26.68 A 4.471 4.471 0 0 0 140.821 29.71 A 6.36 6.36 0 0 0 140.781 30.43 L 129.492 30.43 Q 129.492 26.758 131.758 23.633 A 13.871 13.871 0 0 1 135.704 20.007 A 18.196 18.196 0 0 1 138.164 18.73 A 21.892 21.892 0 0 1 144.337 17.127 A 27.382 27.382 0 0 1 147.461 16.953 A 25.183 25.183 0 0 1 152.556 17.438 Q 155.669 18.082 158.082 19.578 A 14.448 14.448 0 0 1 159.863 20.879 A 12.807 12.807 0 0 1 164.193 28.707 A 18.892 18.892 0 0 1 164.453 31.914 L 164.453 50.234 A 36.19 36.19 0 0 0 164.602 53.386 Q 164.909 56.646 165.848 58.751 A 9.419 9.419 0 0 0 166.133 59.336 L 166.133 60 Z M 11.797 17.734 L 19.648 46.211 L 27.5 17.734 L 39.297 17.734 L 25.039 60 L 14.258 60 L 0 17.734 L 11.797 17.734 Z M 226.758 17.734 L 226.758 60 L 215.43 60 L 215.43 17.734 L 226.758 17.734 Z M 153.125 48.047 L 153.125 40.781 L 148.906 40.781 A 18.332 18.332 0 0 0 145.79 41.023 Q 140.319 41.971 139.883 46.641 L 139.844 47.305 A 4.897 4.897 0 0 0 140.17 49.119 A 4.484 4.484 0 0 0 141.328 50.781 A 4.952 4.952 0 0 0 143.476 51.923 Q 144.343 52.148 145.391 52.148 A 9.723 9.723 0 0 0 150 51.035 A 8.092 8.092 0 0 0 151.872 49.696 A 6.795 6.795 0 0 0 153.125 48.047 Z M 215.109 4.697 A 6.198 6.198 0 0 0 214.766 6.797 A 7.335 7.335 0 0 0 214.776 7.194 A 5.461 5.461 0 0 0 216.504 11.016 A 5.798 5.798 0 0 0 219.112 12.426 A 8.075 8.075 0 0 0 221.094 12.656 A 8.403 8.403 0 0 0 222.689 12.512 A 5.887 5.887 0 0 0 225.684 11.016 A 5.35 5.35 0 0 0 227.089 8.873 A 6.234 6.234 0 0 0 227.422 6.797 Q 227.422 4.258 225.703 2.617 A 5.723 5.723 0 0 0 223.059 1.198 A 8.251 8.251 0 0 0 221.094 0.977 Q 220.041 0.977 219.147 1.188 A 5.654 5.654 0 0 0 216.465 2.617 A 5.381 5.381 0 0 0 215.109 4.697 Z" vector-effect="non-scaling-stroke"/></g></svg>