<svg width="269.766" height="60.782" viewBox="0 0 269.766 60.782" xmlns="http://www.w3.org/2000/svg"><g id="svgGroup" stroke-linecap="round" fill-rule="evenodd" font-size="9pt" stroke="#ffffff" stroke-width="0.25mm" fill="#ffecd1" style="stroke:#ffffff;stroke-width:0.25mm;fill:#ffecd1"><path d="M 9.844 17.734 L 18.906 47.969 L 27.852 17.734 L 37.656 17.734 L 23.008 60 L 14.766 60 L 0 17.734 L 9.844 17.734 Z" id="0" vector-effect="non-scaling-stroke"/><path d="M 68.828 46.016 L 77.773 46.016 A 13.943 13.943 0 0 1 75.312 53.379 A 15.946 15.946 0 0 1 69.788 58.403 A 18.927 18.927 0 0 1 69.062 58.789 A 18.625 18.625 0 0 1 60.547 60.781 A 22.135 22.135 0 0 1 54.413 59.974 A 16.712 16.712 0 0 1 46.484 55.039 A 19.08 19.08 0 0 1 42.283 47.195 Q 41.476 44.279 41.324 40.81 A 37.371 37.371 0 0 1 41.289 39.18 L 41.289 38.203 Q 41.289 28.745 46.243 22.985 A 18.757 18.757 0 0 1 46.445 22.754 A 16.941 16.941 0 0 1 57.044 17.192 A 24.182 24.182 0 0 1 60.508 16.953 A 21.112 21.112 0 0 1 66.072 17.651 A 15.878 15.878 0 0 1 72.793 21.348 A 15.308 15.308 0 0 1 77.632 31.04 A 20.736 20.736 0 0 1 77.773 32.891 L 68.828 32.891 Q 68.672 29.258 66.348 26.914 A 7.835 7.835 0 0 0 61.099 24.591 A 10.494 10.494 0 0 0 60.43 24.57 A 10.138 10.138 0 0 0 57.329 25.021 A 7.93 7.93 0 0 0 53.32 27.91 A 10.705 10.705 0 0 0 51.791 30.901 Q 50.806 33.799 50.781 38.047 L 50.781 39.57 A 30.626 30.626 0 0 0 50.977 43.161 Q 51.45 47.152 53.061 49.539 A 8.816 8.816 0 0 0 53.262 49.824 A 8.054 8.054 0 0 0 59.155 53.136 A 11.811 11.811 0 0 0 60.43 53.203 A 10.027 10.027 0 0 0 63.261 52.821 A 7.956 7.956 0 0 0 66.328 51.133 Q 68.672 49.063 68.828 46.016 Z" id="1" vector-effect="non-scaling-stroke"/><path d="M 94.297 0 L 94.297 22.344 A 15.314 15.314 0 0 1 99.93 18.138 A 15.521 15.521 0 0 1 106.055 16.953 A 16.873 16.873 0 0 1 111.8 17.851 Q 119.248 20.542 119.735 31.296 A 33.41 33.41 0 0 1 119.766 32.383 L 119.766 60 L 110.273 60 L 110.273 32.734 A 15.939 15.939 0 0 0 110.14 30.591 Q 109.77 27.877 108.379 26.543 A 6.019 6.019 0 0 0 106.04 25.181 Q 105.105 24.876 103.969 24.775 A 13.183 13.183 0 0 0 102.812 24.727 A 10.03 10.03 0 0 0 98.87 25.471 Q 96.52 26.464 94.926 28.784 A 12.459 12.459 0 0 0 94.297 29.805 L 94.297 60 L 84.805 60 L 84.805 0 L 94.297 0 Z" id="2" vector-effect="non-scaling-stroke"/><path d="M 164.297 60 L 154.609 60 A 6.477 6.477 0 0 1 154.27 59.198 Q 153.853 58.02 153.516 56.055 A 14.738 14.738 0 0 1 142.83 60.777 A 17.965 17.965 0 0 1 142.422 60.781 A 18.222 18.222 0 0 1 137.72 60.205 A 13.564 13.564 0 0 1 132.031 57.148 A 12.077 12.077 0 0 1 128.899 52.821 A 11.982 11.982 0 0 1 128.008 48.164 A 14.461 14.461 0 0 1 128.685 43.625 A 11.476 11.476 0 0 1 133.027 37.793 A 16.908 16.908 0 0 1 137.924 35.42 Q 140.168 34.722 142.88 34.417 A 40.328 40.328 0 0 1 147.383 34.18 L 153.203 34.18 L 153.203 31.406 Q 153.203 28.125 151.367 26.152 Q 149.805 24.473 146.856 24.223 A 12.726 12.726 0 0 0 145.781 24.18 A 10.617 10.617 0 0 0 143.438 24.425 A 7.386 7.386 0 0 0 140.469 25.801 Q 138.398 27.422 138.398 29.922 L 128.906 29.922 A 10.301 10.301 0 0 1 130.655 24.206 A 13.065 13.065 0 0 1 131.211 23.418 A 14.554 14.554 0 0 1 135.491 19.677 A 18.379 18.379 0 0 1 137.48 18.672 Q 141.445 16.953 146.328 16.953 Q 152.558 16.953 156.668 19.581 A 13.988 13.988 0 0 1 158.164 20.684 A 12.452 12.452 0 0 1 162.404 28.17 A 18.137 18.137 0 0 1 162.695 31.172 L 162.695 50.234 Q 162.695 54.111 163.435 56.923 A 14.032 14.032 0 0 0 164.297 59.336 L 164.297 60 Z M 153.203 48.125 L 153.203 40.156 L 148.086 40.156 A 24.473 24.473 0 0 0 145.327 40.301 Q 142.245 40.652 140.37 41.85 A 7.101 7.101 0 0 0 140.156 41.992 A 5.828 5.828 0 0 0 137.565 46.175 A 7.679 7.679 0 0 0 137.5 47.188 A 6.643 6.643 0 0 0 137.777 49.154 A 5.205 5.205 0 0 0 139.316 51.543 Q 141.09 53.126 144.036 53.163 A 11.29 11.29 0 0 0 144.18 53.164 A 10.797 10.797 0 0 0 149.473 51.797 A 9.666 9.666 0 0 0 151.984 49.843 A 8.725 8.725 0 0 0 153.203 48.125 Z" id="3" vector-effect="non-scaling-stroke"/><path d="M 198.398 46.016 L 207.344 46.016 A 13.943 13.943 0 0 1 204.883 53.379 A 15.946 15.946 0 0 1 199.358 58.403 A 18.927 18.927 0 0 1 198.633 58.789 A 18.625 18.625 0 0 1 190.117 60.781 A 22.135 22.135 0 0 1 183.983 59.974 A 16.712 16.712 0 0 1 176.055 55.039 A 19.08 19.08 0 0 1 171.854 47.195 Q 171.046 44.279 170.894 40.81 A 37.371 37.371 0 0 1 170.859 39.18 L 170.859 38.203 Q 170.859 28.745 175.814 22.985 A 18.757 18.757 0 0 1 176.016 22.754 A 16.941 16.941 0 0 1 186.615 17.192 A 24.182 24.182 0 0 1 190.078 16.953 A 21.112 21.112 0 0 1 195.642 17.651 A 15.878 15.878 0 0 1 202.363 21.348 A 15.308 15.308 0 0 1 207.202 31.04 A 20.736 20.736 0 0 1 207.344 32.891 L 198.398 32.891 Q 198.242 29.258 195.918 26.914 A 7.835 7.835 0 0 0 190.669 24.591 A 10.494 10.494 0 0 0 190 24.57 A 10.138 10.138 0 0 0 186.899 25.021 A 7.93 7.93 0 0 0 182.891 27.91 A 10.705 10.705 0 0 0 181.362 30.901 Q 180.376 33.799 180.352 38.047 L 180.352 39.57 A 30.626 30.626 0 0 0 180.548 43.161 Q 181.02 47.152 182.631 49.539 A 8.816 8.816 0 0 0 182.832 49.824 A 8.054 8.054 0 0 0 188.725 53.136 A 11.811 11.811 0 0 0 190 53.203 A 10.027 10.027 0 0 0 192.831 52.821 A 7.956 7.956 0 0 0 195.898 51.133 Q 198.242 49.063 198.398 46.016 Z" id="4" vector-effect="non-scaling-stroke"/><path d="M 224.609 17.734 L 224.609 60 L 215.117 60 L 215.117 17.734 L 224.609 17.734 Z M 214.814 4.935 A 5.665 5.665 0 0 0 214.531 6.758 A 6.405 6.405 0 0 0 214.54 7.089 A 4.851 4.851 0 0 0 215.918 10.332 Q 216.85 11.29 218.319 11.604 A 7.477 7.477 0 0 0 219.883 11.758 Q 222.461 11.758 223.867 10.332 A 4.734 4.734 0 0 0 224.97 8.599 A 5.39 5.39 0 0 0 225.273 6.758 A 6.496 6.496 0 0 0 225.261 6.354 A 4.913 4.913 0 0 0 223.867 3.125 A 4.326 4.326 0 0 0 223.335 2.66 Q 222.548 2.08 221.483 1.843 A 7.374 7.374 0 0 0 219.883 1.68 Q 218.873 1.68 218.046 1.901 A 4.492 4.492 0 0 0 215.918 3.125 A 4.811 4.811 0 0 0 214.814 4.935 Z" id="5" vector-effect="non-scaling-stroke"/><path d="M 234.805 17.734 L 243.75 17.734 L 244.023 22.617 A 15.011 15.011 0 0 1 254.926 17.003 A 19.441 19.441 0 0 1 256.328 16.953 Q 269.005 16.953 269.726 30.888 A 32.641 32.641 0 0 1 269.766 32.07 L 269.766 60 L 260.273 60 L 260.273 32.617 A 14.791 14.791 0 0 0 260.124 30.439 Q 259.958 29.327 259.608 28.438 A 5.818 5.818 0 0 0 258.535 26.66 A 5.201 5.201 0 0 0 256.464 25.288 Q 254.978 24.727 252.852 24.727 A 9.938 9.938 0 0 0 248.885 25.488 Q 246.033 26.715 244.297 29.922 L 244.297 60 L 234.805 60 L 234.805 17.734 Z" id="6" vector-effect="non-scaling-stroke"/></g></svg>